<svg width="104" height="98" viewBox="0 0 104 98" fill="none" xmlns="http://www.w3.org/2000/svg">
<path d="M83.9286 0.901123C80.6194 0.901123 23.7252 0.901123 20.0773 0.901123L0 28.2791L52.2157 97.0989L104 28.2712L83.9286 0.901123ZM28.5454 31.2869L43.2566 75.2371L9.91022 31.2869H28.5454ZM34.9542 31.2869H69.0697L52.129 82.5977L34.9542 31.2869ZM75.4698 31.2869H94.1262L60.8812 75.4733L75.4698 31.2869ZM80.8487 6.97828L94.2184 25.2097H75.4738L69.4917 6.97828H80.8487ZM63.0957 6.97828L69.0778 25.2097H34.9278L40.91 6.97828H63.0957ZM23.1568 6.97828H34.5138L28.5316 25.2097H9.78706L23.1568 6.97828Z" fill="#F8D7A4"/>
</svg>
