<svg width="88" height="100" viewBox="0 0 88 100" fill="none" xmlns="http://www.w3.org/2000/svg">
<path d="M87 74.2528C86.9975 71.0653 86.066 67.9356 84.3009 65.1842C82.5358 62.4327 80.0004 60.1581 76.9542 58.5933L59.6669 49.7285C61.3159 48.4756 62.6743 46.9355 63.6627 45.1983C64.651 43.4612 65.2496 41.5618 65.4232 39.6112L70.3186 37.3792C71.0259 37.0599 71.6209 36.5663 72.0359 35.9543C72.451 35.3424 72.6695 34.6366 72.6667 33.9171V31.3267C72.6637 30.3006 72.2166 29.317 71.4226 28.5896C70.8666 28.0791 70.1647 27.7209 69.3967 27.5555C68.6287 27.3902 67.8252 27.4243 67.0773 27.6541L65.5 28.1335V24.1516L67.2068 22.8179C67.7958 22.3582 68.2686 21.7875 68.5925 21.1452C68.9165 20.503 69.0839 19.8044 69.0833 19.0975V17.3333C69.0807 16.6271 68.9095 15.9298 68.5817 15.2898C68.2539 14.6499 67.7773 14.0827 67.1849 13.6274L67.2226 13.6176L65.1247 6.92247C64.584 5.21918 63.4525 3.72148 61.8996 2.65376C60.3467 1.58605 58.4561 1.00581 56.511 1H31.489C29.5439 1.00581 27.6533 1.58605 26.1004 2.65376C24.5475 3.72148 23.416 5.21918 22.8753 6.92247L20.7774 13.6177L20.8151 13.6275C20.2227 14.0827 19.7461 14.6499 19.4183 15.2899C19.0905 15.9298 18.9193 16.6271 18.9167 17.3333V19.0975C18.9161 19.8044 19.0836 20.503 19.4075 21.1452C19.7314 21.7875 20.2042 22.3582 20.7932 22.8179L22.5 24.1515V28.1336L20.9227 27.6541C20.1748 27.4245 19.3714 27.3904 18.6034 27.5557C17.8353 27.7211 17.1335 28.0792 16.5774 28.5896C15.7834 29.317 15.3363 30.3006 15.3333 31.3267V33.9171C15.3305 34.6365 15.5489 35.3422 15.9638 35.9542C16.3787 36.5661 16.9734 37.0598 17.6805 37.3792L22.5768 39.6113C22.7504 41.5618 23.349 43.4612 24.3373 45.1984C25.3257 46.9356 26.6841 48.4757 28.3331 49.7286L11.0457 58.5934C7.99961 60.1582 5.46424 62.4327 3.69912 65.1842C1.934 67.9357 1.00251 71.0653 1 74.2528V99H87V74.2528ZM75.4753 61.6063L62.9035 74.5H56.5417V82.1722L50.4738 90.4697L52.8953 75.0183L64.2354 55.8192L75.1976 61.4404C75.2949 61.4905 75.3794 61.5547 75.4753 61.6063ZM34.515 53.8983C36.1719 54.9831 38.0401 55.7705 40.0198 56.2188L39.8918 56.3356C38.884 57.2545 38.3179 58.5006 38.3179 59.8C38.3179 61.0994 38.884 62.3455 39.8918 63.2644L40.084 63.4397L36.6499 70.7443L26.8881 54.2175L31.4605 51.8729L34.515 53.8983ZM56.5395 51.873L61.1119 54.2176L51.3501 70.7443L47.916 63.4397L48.1082 63.2644C49.116 62.3455 49.6821 61.0994 49.6821 59.8C49.6821 58.5006 49.116 57.2545 48.1082 56.3356L47.9802 56.2188C49.96 55.7706 51.8281 54.9831 53.4851 53.8983L56.5395 51.873ZM42.7333 61.2356L42.4253 60.9548C42.09 60.6482 41.9018 60.2329 41.9018 59.8C41.9018 59.3671 42.09 58.9518 42.4253 58.6452L42.7333 58.3644C43.0695 58.0585 43.5251 57.8867 44.0001 57.8867C44.475 57.8867 44.9306 58.0585 45.2668 58.3644L45.5748 58.6452C45.9101 58.9518 46.0983 59.3671 46.0983 59.8C46.0983 60.2329 45.9101 60.6482 45.5748 60.9548L45.2668 61.2356C44.9305 61.5412 44.475 61.7129 44.0001 61.7129C43.5251 61.7129 43.0696 61.5412 42.7333 61.2356ZM38.6781 74.722L43.2877 64.9166C43.7581 65.0012 44.242 65.0012 44.7124 64.9166L49.322 74.722L46.0297 95.7333H41.9703L38.6781 74.722ZM68.2111 30.7533C68.3108 30.7231 68.4169 30.7148 68.5207 30.7293C68.6245 30.7437 68.723 30.7805 68.8082 30.8365C68.8934 30.8925 68.9628 30.9661 69.0106 31.0514C69.0584 31.1366 69.0834 31.231 69.0833 31.3267V33.9171C69.0839 34.0294 69.0498 34.1395 68.985 34.235C68.9202 34.3304 68.8272 34.4074 68.7168 34.457L65.5 35.9235V31.5774L68.2111 30.7533ZM61.9167 22.649L55.5977 27.5871C54.6231 28.3479 53.3824 28.7662 52.0992 28.7667H35.9008C34.6179 28.7664 33.3774 28.348 32.4032 27.5871L26.0833 22.6488V22.2333H61.9167V22.649ZM65.5 18.9667H22.5V17.3333C22.5006 16.9003 22.6896 16.4852 23.0254 16.179C23.3613 15.8728 23.8167 15.7006 24.2917 15.7H63.7083C64.1833 15.7006 64.6387 15.8728 64.9745 16.179C65.3104 16.4852 65.4994 16.9003 65.5 17.3333V18.9667ZM26.3204 7.82044C26.6447 6.79831 27.3236 5.89951 28.2554 5.25881C29.1873 4.6181 30.3218 4.26999 31.489 4.26667H56.511C57.6782 4.26999 58.8127 4.6181 59.7446 5.25881C60.6764 5.89951 61.3553 6.79831 61.6796 7.82044L63.1249 12.4333H24.8751L26.3204 7.82044ZM18.9167 33.9171V31.3267C18.9166 31.231 18.9416 31.1366 18.9894 31.0514C19.0372 30.9661 19.1066 30.8925 19.1918 30.8365C19.277 30.7805 19.3755 30.7437 19.4793 30.7293C19.5831 30.7148 19.6892 30.7231 19.7889 30.7533L22.5 31.5774V35.9237L19.2823 34.4569C19.1721 34.4071 19.0794 34.3301 19.0148 34.2347C18.9502 34.1393 18.9162 34.0292 18.9167 33.9171ZM26.0833 38.4462V26.9512L30.0717 30.0674C31.6954 31.3355 33.7627 32.0327 35.9008 32.0333H52.0992C54.2375 32.0326 56.3051 31.3354 57.9291 30.0674L61.9167 26.9516V38.4462C61.9136 40.2491 61.4443 42.0259 60.5469 43.6325C59.6495 45.2391 58.3492 46.6301 56.7516 47.6928L51.3766 51.2569C49.2349 52.6822 46.6517 53.4503 44 53.4503C41.3483 53.4503 38.7651 52.6822 36.6234 51.2569L31.2484 47.6928C29.6508 46.6301 28.3505 45.2391 27.4531 43.6325C26.5557 42.0259 26.0864 40.2491 26.0833 38.4462ZM23.7646 55.8193L35.1047 75.0184L37.5262 90.4697L31.4583 82.1722V74.5H25.0965L12.5247 61.6063C12.6206 61.5547 12.7051 61.4905 12.8024 61.4405L23.7646 55.8193ZM4.58333 74.2528C4.58757 72.2528 5.03927 70.2746 5.91081 68.4392C6.78235 66.6038 8.05541 64.9498 9.65214 63.5783L23.4868 77.7667H27.875V83.1611L37.069 95.7333H22.5V84.3H18.9167V95.7333H4.58333V74.2528ZM83.4167 95.7333H69.0833V84.3H65.5V95.7333H50.931L60.125 83.1611V77.7667H64.5132L78.3479 63.5783C79.9446 64.9498 81.2176 66.6038 82.0892 68.4392C82.9607 70.2746 83.4124 72.2528 83.4167 74.2528V95.7333Z" fill="#F8D7A4" stroke="#F8D7A4" stroke-width="1.5"/>
</svg>
